<svg width="86" height="65" viewBox="0 0 86 65" fill="none" xmlns="http://www.w3.org/2000/svg">
<mask id="path-1-outside-1_804_616" maskUnits="userSpaceOnUse" x="0.339783" y="0.189453" width="85" height="65" fill="black">
<rect fill="white" x="0.339783" y="0.189453" width="85" height="65"/>
<path d="M26.6956 17.0693C26.5575 17.3348 26.4943 17.6329 26.5128 17.9317C26.5313 18.2304 26.6308 18.5184 26.8007 18.7649L41.5737 40.1036C41.7247 40.3217 41.9264 40.4999 42.1614 40.6229C42.3963 40.746 42.6577 40.8103 42.9229 40.8103C43.1882 40.8103 43.4495 40.746 43.6845 40.6229C43.9195 40.4999 44.1211 40.3217 44.2722 40.1036L59.0452 18.7649C59.2168 18.5189 59.3175 18.2305 59.3365 17.9312C59.3555 17.6319 59.2919 17.3331 59.1527 17.0674C59.0135 16.8017 58.8041 16.5793 58.5472 16.4245C58.2903 16.2697 57.9958 16.1884 57.6959 16.1895L28.1499 16.1895C27.8503 16.1894 27.5564 16.2714 27.3 16.4265C27.0437 16.5816 26.8347 16.8039 26.6956 17.0693ZM54.5624 19.4723L42.9229 36.2856L31.2835 19.4723H54.5624Z"/>
</mask>
<path d="M26.6956 17.0693L12.5223 9.64528L12.5116 9.66564L12.501 9.68604L26.6956 17.0693ZM26.8007 18.7649L13.626 27.8438L13.6358 27.858L13.6456 27.8722L26.8007 18.7649ZM41.5737 40.1036L28.4186 49.211L28.4217 49.2154L41.5737 40.1036ZM44.2722 40.1036L57.4242 49.2154L57.4273 49.211L44.2722 40.1036ZM59.0452 18.7649L45.9228 9.61048L45.9064 9.63397L45.8901 9.65753L59.0452 18.7649ZM57.6959 16.1895V32.1895H57.7239L57.7519 32.1894L57.6959 16.1895ZM28.1499 16.1895L28.1473 32.1895H28.1499V16.1895ZM54.5624 19.4723L67.7176 28.5794L85.0987 3.47235L54.5624 3.47235V19.4723ZM42.9229 36.2856L29.7677 45.3927L42.9229 64.3956L56.0782 45.3927L42.9229 36.2856ZM31.2835 19.4723V3.47235L0.747124 3.47235L18.1282 28.5794L31.2835 19.4723ZM12.501 9.68604C11.022 12.5295 10.3453 15.722 10.5435 18.9211L42.4822 16.9423C42.6434 19.5438 42.093 22.1401 40.8903 24.4525L12.501 9.68604ZM10.5435 18.9211C10.7416 22.12 11.8072 25.2046 13.626 27.8438L39.9754 9.68597C41.4545 11.8323 42.321 14.3408 42.4822 16.9423L10.5435 18.9211ZM13.6456 27.8722L28.4186 49.211L54.7287 30.9963L39.9558 9.65752L13.6456 27.8722ZM28.4217 49.2154C30.0452 51.5589 32.2126 53.474 34.738 54.7966L49.5847 26.4492C51.6402 27.5257 53.4042 29.0844 54.7257 30.9918L28.4217 49.2154ZM34.738 54.7966C37.2636 56.1194 40.072 56.8103 42.9229 56.8103V24.8103C45.2433 24.8103 47.5291 25.3726 49.5847 26.4492L34.738 54.7966ZM42.9229 56.8103C45.7738 56.8103 48.5822 56.1194 51.1078 54.7966L36.2612 26.4492C38.3167 25.3726 40.6026 24.8103 42.9229 24.8103V56.8103ZM51.1078 54.7966C53.6333 53.474 55.8006 51.5589 57.4242 49.2154L31.1202 30.9918C32.4416 29.0844 34.2057 27.5258 36.2612 26.4492L51.1078 54.7966ZM57.4273 49.211L72.2002 27.8722L45.8901 9.65753L31.1171 30.9963L57.4273 49.211ZM72.1675 27.9193C74.0152 25.2707 75.1003 22.1658 75.3045 18.9428L43.3685 16.9195C43.5348 14.2953 44.4183 11.7671 45.9228 9.61048L72.1675 27.9193ZM75.3045 18.9428C75.5087 15.7199 74.8241 12.5028 73.3255 9.64227L44.9799 24.4925C43.7597 22.1633 43.2023 19.5438 43.3685 16.9195L75.3045 18.9428ZM73.3255 9.64227C71.8268 6.78169 69.5716 4.38747 66.8057 2.72062L50.2887 30.1285C48.0365 28.7712 46.2002 26.8217 44.9799 24.4925L73.3255 9.64227ZM66.8057 2.72062C64.0397 1.05377 60.8693 0.178263 57.6399 0.189561L57.7519 32.1894C55.1224 32.1986 52.5408 31.4857 50.2887 30.1285L66.8057 2.72062ZM57.6959 0.189464L28.1499 0.189464V32.1895H57.6959V0.189464ZM28.1526 0.189464C24.9324 0.188932 21.7734 1.06983 19.0182 2.73666L35.5819 30.1163C33.3394 31.4729 30.7683 32.1899 28.1473 32.1895L28.1526 0.189464ZM19.0182 2.73666C16.2629 4.40351 14.0164 6.79271 12.5223 9.64528L40.869 24.4933C39.6529 26.815 37.8245 28.7596 35.5819 30.1163L19.0182 2.73666ZM41.4071 10.3653L29.7677 27.1785L56.0782 45.3927L67.7176 28.5794L41.4071 10.3653ZM56.0782 27.1785L44.4387 10.3653L18.1282 28.5794L29.7677 45.3927L56.0782 27.1785ZM31.2835 35.4723H54.5624V3.47235L31.2835 3.47235V35.4723Z" fill="#FF6464" mask="url(#path-1-outside-1_804_616)"/>
</svg>
