<svg width="163" height="56" viewBox="0 0 163 56" fill="none" xmlns="http://www.w3.org/2000/svg">
<path d="M23.904 30.744H15.008L13.536 35H8.832L16.864 12.632H22.08L30.112 35H25.376L23.904 30.744ZM22.688 27.16L19.456 17.816L16.224 27.16H22.688ZM37.5943 11.32V35H33.1143V11.32H37.5943ZM46.5005 11.32V35H42.0205V11.32H46.5005ZM49.7747 26.072C49.7747 24.28 50.1267 22.6907 50.8307 21.304C51.5561 19.9173 52.5268 18.8507 53.7428 18.104C54.9801 17.3573 56.3561 16.984 57.8708 16.984C59.1934 16.984 60.3454 17.2507 61.3268 17.784C62.3294 18.3173 63.1294 18.9893 63.7268 19.8V17.272H68.2388V35H63.7268V32.408C63.1508 33.24 62.3508 33.9333 61.3268 34.488C60.3241 35.0213 59.1614 35.288 57.8388 35.288C56.3454 35.288 54.9801 34.904 53.7428 34.136C52.5268 33.368 51.5561 32.2907 50.8307 30.904C50.1267 29.496 49.7747 27.8853 49.7747 26.072ZM63.7268 26.136C63.7268 25.048 63.5134 24.12 63.0868 23.352C62.6601 22.5627 62.0841 21.9653 61.3588 21.56C60.6334 21.1333 59.8548 20.92 59.0228 20.92C58.1908 20.92 57.4228 21.1227 56.7188 21.528C56.0148 21.9333 55.4388 22.5307 54.9908 23.32C54.5641 24.088 54.3508 25.0053 54.3508 26.072C54.3508 27.1387 54.5641 28.0773 54.9908 28.888C55.4388 29.6773 56.0148 30.2853 56.7188 30.712C57.4441 31.1387 58.2121 31.352 59.0228 31.352C59.8548 31.352 60.6334 31.1493 61.3588 30.744C62.0841 30.3173 62.6601 29.72 63.0868 28.952C63.5134 28.1627 63.7268 27.224 63.7268 26.136ZM96.9663 12.664V35H92.4863V20.472L86.5023 35H83.1103L77.0943 20.472V35H72.6143V12.664H77.7023L84.8063 29.272L91.9103 12.664H96.9663ZM109.268 35.288C107.561 35.288 106.025 34.9147 104.66 34.168C103.294 33.4 102.217 32.3227 101.428 30.936C100.66 29.5493 100.276 27.9493 100.276 26.136C100.276 24.3227 100.67 22.7227 101.46 21.336C102.27 19.9493 103.369 18.8827 104.756 18.136C106.142 17.368 107.689 16.984 109.396 16.984C111.102 16.984 112.649 17.368 114.036 18.136C115.422 18.8827 116.51 19.9493 117.3 21.336C118.11 22.7227 118.516 24.3227 118.516 26.136C118.516 27.9493 118.1 29.5493 117.267 30.936C116.457 32.3227 115.348 33.4 113.94 34.168C112.553 34.9147 110.996 35.288 109.268 35.288ZM109.268 31.384C110.078 31.384 110.836 31.192 111.54 30.808C112.265 30.4027 112.841 29.8053 113.268 29.016C113.694 28.2267 113.908 27.2667 113.908 26.136C113.908 24.4507 113.46 23.16 112.564 22.264C111.689 21.3467 110.612 20.888 109.332 20.888C108.052 20.888 106.974 21.3467 106.1 22.264C105.246 23.16 104.82 24.4507 104.82 26.136C104.82 27.8213 105.236 29.1227 106.068 30.04C106.921 30.936 107.988 31.384 109.268 31.384ZM120.65 26.072C120.65 24.28 121.002 22.6907 121.706 21.304C122.431 19.9173 123.412 18.8507 124.65 18.104C125.887 17.3573 127.263 16.984 128.778 16.984C129.93 16.984 131.028 17.24 132.074 17.752C133.119 18.2427 133.951 18.904 134.57 19.736V11.32H139.114V35H134.57V32.376C134.015 33.2507 133.236 33.9547 132.234 34.488C131.231 35.0213 130.068 35.288 128.746 35.288C127.252 35.288 125.887 34.904 124.65 34.136C123.412 33.368 122.431 32.2907 121.706 30.904C121.002 29.496 120.65 27.8853 120.65 26.072ZM134.602 26.136C134.602 25.048 134.388 24.12 133.962 23.352C133.535 22.5627 132.959 21.9653 132.234 21.56C131.508 21.1333 130.73 20.92 129.898 20.92C129.066 20.92 128.298 21.1227 127.594 21.528C126.89 21.9333 126.314 22.5307 125.866 23.32C125.439 24.088 125.226 25.0053 125.226 26.072C125.226 27.1387 125.439 28.0773 125.866 28.888C126.314 29.6773 126.89 30.2853 127.594 30.712C128.319 31.1387 129.087 31.352 129.898 31.352C130.73 31.352 131.508 31.1493 132.234 30.744C132.959 30.3173 133.535 29.72 133.962 28.952C134.388 28.1627 134.602 27.224 134.602 26.136ZM142.337 26.072C142.337 24.28 142.689 22.6907 143.393 21.304C144.119 19.9173 145.089 18.8507 146.305 18.104C147.543 17.3573 148.919 16.984 150.433 16.984C151.756 16.984 152.908 17.2507 153.889 17.784C154.892 18.3173 155.692 18.9893 156.289 19.8V17.272H160.801V35H156.289V32.408C155.713 33.24 154.913 33.9333 153.889 34.488C152.887 35.0213 151.724 35.288 150.401 35.288C148.908 35.288 147.543 34.904 146.305 34.136C145.089 33.368 144.119 32.2907 143.393 30.904C142.689 29.496 142.337 27.8853 142.337 26.072ZM156.289 26.136C156.289 25.048 156.076 24.12 155.649 23.352C155.223 22.5627 154.647 21.9653 153.921 21.56C153.196 21.1333 152.417 20.92 151.585 20.92C150.753 20.92 149.985 21.1227 149.281 21.528C148.577 21.9333 148.001 22.5307 147.553 23.32C147.127 24.088 146.913 25.0053 146.913 26.072C146.913 27.1387 147.127 28.0773 147.553 28.888C148.001 29.6773 148.577 30.2853 149.281 30.712C150.007 31.1387 150.775 31.352 151.585 31.352C152.417 31.352 153.196 31.1493 153.921 30.744C154.647 30.3173 155.223 29.72 155.649 28.952C156.076 28.1627 156.289 27.224 156.289 26.136Z" fill="#F34E4E"/>
<path d="M3.01392 49.1749C2.3808 49.1749 1.85597 48.9833 1.43944 48.6001C1.03957 48.2003 0.839631 47.7088 0.839631 47.1256C0.839631 46.5425 1.03957 46.0593 1.43944 45.6761C1.85597 45.2762 2.3808 45.0763 3.01392 45.0763C3.63039 45.0763 4.13855 45.2762 4.53842 45.6761C4.93829 46.0593 5.13823 46.5425 5.13823 47.1256C5.13823 47.7088 4.93829 48.2003 4.53842 48.6001C4.13855 48.9833 3.63039 49.1749 3.01392 49.1749ZM13.2547 49.2249C12.1218 49.2249 11.1054 49.025 10.2057 48.6251C9.30601 48.2086 8.58958 47.6504 8.05642 46.9507C7.53992 46.2509 7.25668 45.4762 7.20669 44.6264H10.7305C10.7972 45.1596 11.0554 45.6011 11.5053 45.951C11.9718 46.3009 12.5466 46.4758 13.2297 46.4758C13.8962 46.4758 14.4127 46.3425 14.7792 46.076C15.1624 45.8094 15.354 45.4678 15.354 45.0513C15.354 44.6014 15.1208 44.2682 14.6543 44.0516C14.2044 43.8184 13.4796 43.5684 12.48 43.3019C11.447 43.0519 10.5973 42.7937 9.9308 42.5271C9.28102 42.2605 8.71453 41.8523 8.23136 41.3025C7.76484 40.7527 7.53159 40.0113 7.53159 39.0782C7.53159 38.3118 7.74818 37.612 8.18138 36.9789C8.63123 36.3458 9.26436 35.846 10.0808 35.4794C10.9138 35.1129 11.8885 34.9296 13.0048 34.9296C14.6543 34.9296 15.9705 35.3461 16.9535 36.1792C17.9365 36.9956 18.478 38.1036 18.578 39.5031H15.2291C15.1791 38.9533 14.9458 38.5201 14.5293 38.2035C14.1294 37.8703 13.5879 37.7037 12.9048 37.7037C12.2717 37.7037 11.7802 37.8203 11.4303 38.0536C11.0971 38.2868 10.9305 38.6117 10.9305 39.0283C10.9305 39.4948 11.1637 39.853 11.6302 40.1029C12.0968 40.3362 12.8215 40.5777 13.8045 40.8277C14.8042 41.0776 15.6289 41.3358 16.2787 41.6024C16.9285 41.869 17.4867 42.2855 17.9532 42.852C18.4364 43.4018 18.6863 44.1349 18.7029 45.0513C18.7029 45.851 18.478 46.5675 18.0282 47.2006C17.595 47.8337 16.9618 48.3336 16.1288 48.7001C15.3124 49.05 14.3544 49.2249 13.2547 49.2249ZM29.3725 34.9546C30.4222 34.9546 31.3552 35.1878 32.1716 35.6544C32.988 36.1042 33.6211 36.779 34.071 37.6787C34.5375 38.5617 34.7707 39.6281 34.7707 40.8777V49H31.2719V41.3525C31.2719 40.2529 30.997 39.4115 30.4472 38.8283C29.8973 38.2285 29.1476 37.9286 28.1979 37.9286C27.2315 37.9286 26.4651 38.2285 25.8986 38.8283C25.3488 39.4115 25.0739 40.2529 25.0739 41.3525V49H21.575V30.506H25.0739V36.879C25.5238 36.2792 26.1236 35.8126 26.8733 35.4794C27.6231 35.1295 28.4561 34.9546 29.3725 34.9546ZM44.246 49.2249C42.9131 49.2249 41.7135 48.9334 40.6471 48.3502C39.5808 47.7504 38.7394 46.909 38.123 45.826C37.5232 44.7431 37.2233 43.4935 37.2233 42.0773C37.2233 40.6611 37.5315 39.4115 38.148 38.3285C38.7811 37.2455 39.6391 36.4124 40.7221 35.8293C41.8051 35.2295 43.013 34.9296 44.3459 34.9296C45.6788 34.9296 46.8868 35.2295 47.9698 35.8293C49.0527 36.4124 49.9025 37.2455 50.5189 38.3285C51.152 39.4115 51.4686 40.6611 51.4686 42.0773C51.4686 43.4935 51.1437 44.7431 50.4939 45.826C49.8608 46.909 48.9944 47.7504 47.8948 48.3502C46.8118 48.9334 45.5955 49.2249 44.246 49.2249ZM44.246 46.1759C44.8791 46.1759 45.4706 46.026 46.0204 45.7261C46.5869 45.4095 47.0367 44.943 47.37 44.3265C47.7032 43.7101 47.8698 42.9603 47.8698 42.0773C47.8698 40.761 47.5199 39.753 46.8201 39.0532C46.137 38.3368 45.2956 37.9786 44.296 37.9786C43.2963 37.9786 42.4549 38.3368 41.7718 39.0532C41.1053 39.753 40.7721 40.761 40.7721 42.0773C40.7721 43.3935 41.097 44.4098 41.7468 45.1263C42.4132 45.826 43.2463 46.1759 44.246 46.1759ZM57.534 37.1539C57.9839 36.5207 58.6003 35.9959 59.3834 35.5794C60.1832 35.1462 61.0912 34.9296 62.1075 34.9296C63.2905 34.9296 64.3568 35.2212 65.3065 35.8043C66.2728 36.3874 67.0309 37.2205 67.5807 38.3035C68.1472 39.3698 68.4305 40.6111 68.4305 42.0273C68.4305 43.4435 68.1472 44.7014 67.5807 45.801C67.0309 46.884 66.2728 47.7254 65.3065 48.3252C64.3568 48.925 63.2905 49.2249 62.1075 49.2249C61.0912 49.2249 60.1915 49.0167 59.4084 48.6001C58.642 48.1836 58.0172 47.6588 57.534 47.0256V55.5978H54.0352V35.1545H57.534V37.1539ZM64.8566 42.0273C64.8566 41.1942 64.6817 40.4778 64.3318 39.878C63.9986 39.2615 63.5487 38.795 62.9822 38.4784C62.4324 38.1619 61.8326 38.0036 61.1828 38.0036C60.5497 38.0036 59.9499 38.1702 59.3834 38.5034C58.8336 38.82 58.3837 39.2865 58.0339 39.903C57.7006 40.5194 57.534 41.2442 57.534 42.0773C57.534 42.9103 57.7006 43.6351 58.0339 44.2515C58.3837 44.868 58.8336 45.3429 59.3834 45.6761C59.9499 45.9926 60.5497 46.1509 61.1828 46.1509C61.8326 46.1509 62.4324 45.9843 62.9822 45.6511C63.5487 45.3179 63.9986 44.843 64.3318 44.2266C64.6817 43.6101 64.8566 42.877 64.8566 42.0273Z" fill="black"/>
</svg>
